<svg width="109" height="36" viewBox="0 0 109 36" fill="none" xmlns="http://www.w3.org/2000/svg">
<path d="M51.9995 23.5111C52.1176 23.7325 52.125 23.954 52.0217 24.1754C51.9479 24.4116 51.8224 24.5888 51.6452 24.7069C51.5567 24.7807 51.4755 24.8471 51.4017 24.9062C51.3278 24.9505 51.2466 24.9874 51.1581 25.0169C50.9957 25.1055 50.8038 25.135 50.5823 25.1055C50.4937 25.1055 50.4125 25.0907 50.3387 25.0612C50.2649 25.0317 50.1911 24.9947 50.1173 24.9505C50.0435 24.9062 49.9623 24.8619 49.8737 24.8176C49.7999 24.7585 49.7261 24.6995 49.6523 24.6404C49.5637 24.5666 49.4825 24.5002 49.4087 24.4411C49.3349 24.3821 49.2684 24.3157 49.2094 24.2418C49.1356 24.168 49.0691 24.0942 49.0101 24.0204C48.951 23.9466 48.892 23.8802 48.8329 23.8211L48.5672 23.5332L44.3155 19.0823L44.3819 23.5332V23.7325C44.3819 23.7916 44.3746 23.858 44.3598 23.9318C44.345 23.9909 44.3303 24.0573 44.3155 24.1311C44.2712 24.323 44.2196 24.4928 44.1605 24.6404C44.131 24.729 44.0867 24.8028 44.0276 24.8619C43.9834 24.9209 43.9317 24.98 43.8726 25.039C43.7102 25.1867 43.5183 25.2679 43.2969 25.2826C43.0754 25.3564 42.8688 25.3786 42.6768 25.3491C42.4997 25.3343 42.3152 25.2826 42.1232 25.194C41.9756 25.1055 41.8427 24.9578 41.7246 24.7512C41.6951 24.6921 41.673 24.6552 41.6582 24.6404C41.6582 24.6257 41.6435 24.574 41.6139 24.4854C41.5253 24.3378 41.4811 24.1902 41.4811 24.0425C41.4663 23.954 41.4515 23.8728 41.4368 23.799C41.4368 23.7251 41.4294 23.644 41.4146 23.5554C41.3999 23.4963 41.3925 23.4373 41.3925 23.3782C41.3925 23.3192 41.3925 23.2601 41.3925 23.2011C41.4072 23.1273 41.4146 23.0682 41.4146 23.0239C41.4146 22.9649 41.4146 22.8984 41.4146 22.8246L41.3925 21.0752L41.3703 17.82C41.3703 16.8752 41.3482 15.8566 41.3039 14.7641C41.2891 14.2327 41.2818 13.7603 41.2818 13.3469C41.2818 12.9336 41.2891 12.4685 41.3039 11.9518V11.8632C41.3334 11.7009 41.3482 11.5458 41.3482 11.3982C41.3482 11.2358 41.3556 11.0808 41.3703 10.9332C41.3703 10.6379 41.4368 10.3427 41.5696 10.0474C41.6582 9.82598 41.8132 9.64883 42.0347 9.51596C42.1528 9.44215 42.2635 9.39786 42.3668 9.3831C42.4849 9.35357 42.6104 9.32405 42.7433 9.29452C42.8466 9.29452 42.9426 9.3019 43.0312 9.31667C43.1345 9.33143 43.2305 9.34619 43.319 9.36096C43.5109 9.39048 43.6881 9.47168 43.8505 9.60454C43.8948 9.64883 43.9317 9.7005 43.9612 9.75955C44.0055 9.8186 44.0424 9.89242 44.0719 9.98099C44.1457 10.0991 44.1974 10.2689 44.2269 10.4903C44.2417 10.5789 44.2491 10.6675 44.2491 10.756C44.2638 10.8446 44.2712 10.9406 44.2712 11.0439V11.9518L44.2934 14.6534C44.5296 14.4467 44.7584 14.2327 44.9798 14.0112C45.216 13.7898 45.4449 13.5536 45.6663 13.3026C46.0649 12.8893 46.4561 12.4907 46.84 12.1068C47.2385 11.7082 47.6371 11.317 48.0357 10.9332L48.1022 10.8668C48.2203 10.7487 48.3384 10.6379 48.4565 10.5346C48.5893 10.4165 48.7148 10.3058 48.8329 10.2024C49.0544 9.95147 49.3275 9.77431 49.6523 9.67097C49.8589 9.53811 50.1025 9.48644 50.383 9.51596C50.5159 9.53073 50.634 9.56025 50.7373 9.60454C50.8554 9.64883 50.9662 9.70788 51.0695 9.7817C51.1433 9.85551 51.2171 9.92194 51.2909 9.98099C51.3647 10.0253 51.4238 10.0843 51.4681 10.1581C51.5862 10.2615 51.66 10.4165 51.6895 10.6232C51.6895 10.7856 51.66 10.9332 51.601 11.0661C51.5567 11.1399 51.5124 11.2137 51.4681 11.2875C51.4238 11.3613 51.3721 11.4351 51.3131 11.5089C51.2393 11.5975 51.1728 11.6787 51.1138 11.7525C51.0547 11.8263 50.9883 11.9002 50.9145 11.974C50.8554 12.0478 50.789 12.1142 50.7152 12.1733C50.6561 12.2323 50.5971 12.2988 50.538 12.3726L50.2502 12.6604L46.1092 16.89C46.3306 17.1114 46.5595 17.3476 46.7957 17.5986C47.0466 17.8348 47.2828 18.071 47.5043 18.3072C47.7257 18.5286 47.9324 18.7427 48.1243 18.9494C48.3162 19.1413 48.4786 19.3037 48.6115 19.4366C49.0101 19.8499 49.3939 20.2633 49.763 20.6766C50.1321 21.0752 50.4937 21.4812 50.848 21.8946L50.9145 21.961C51.0326 22.0791 51.1433 22.2046 51.2466 22.3374C51.35 22.4555 51.4459 22.5737 51.5345 22.6918C51.756 22.9427 51.911 23.2158 51.9995 23.5111ZM55.2907 15.7828C55.7336 15.5613 56.1986 15.4063 56.6858 15.3177C57.173 15.2144 57.6528 15.1923 58.1252 15.2513C58.6124 15.2956 59.0774 15.4211 59.5203 15.6278C59.9631 15.8197 60.3765 16.1002 60.7603 16.4692C61.1442 16.8531 61.4394 17.2738 61.6461 17.7315C61.8528 18.1891 62.0004 18.6984 62.089 19.2594C62.148 19.6432 62.244 19.9975 62.3769 20.3223C62.5097 20.6471 62.65 20.9719 62.7976 21.2967C62.96 21.6215 63.1076 21.9462 63.2405 22.271C63.3881 22.5958 63.5062 22.9353 63.5948 23.2896C63.6686 23.6292 63.6391 23.9614 63.5062 24.2861C63.3881 24.5962 63.1371 24.7881 62.7533 24.8619C62.5319 24.9062 62.3178 24.8914 62.1111 24.8176C61.9192 24.729 61.7421 24.6109 61.5797 24.4633C61.4173 24.3009 61.2697 24.1311 61.1368 23.954C61.0187 23.7621 60.908 23.5849 60.8046 23.4225C60.4651 23.8654 60.096 24.2123 59.6974 24.4633C59.2988 24.6995 58.819 24.8545 58.258 24.9283C57.7856 24.9874 57.3354 25.0021 56.9073 24.9726C56.4791 24.9431 56.0215 24.8619 55.5343 24.729C54.8995 24.5666 54.3754 24.2861 53.9621 23.8875C53.5635 23.4742 53.2535 23.0018 53.032 22.4703C52.8253 21.9241 52.7146 21.341 52.6999 20.7209C52.6851 20.1009 52.7589 19.4882 52.9213 18.883C53.128 18.0858 53.438 17.4362 53.8514 16.9343C54.2647 16.4323 54.7445 16.0485 55.2907 15.7828ZM55.8443 18.3736C55.6377 18.5803 55.4753 18.8239 55.3572 19.1044C55.2391 19.3849 55.1652 19.6801 55.1357 19.9902C55.121 20.3002 55.1505 20.6102 55.2243 20.9202C55.2981 21.2302 55.4162 21.5033 55.5786 21.7396C55.7262 21.9462 55.9772 22.1234 56.3315 22.271C56.6858 22.4039 57.0549 22.4851 57.4387 22.5146C57.8816 22.5441 58.2654 22.426 58.5902 22.1603C58.9298 21.8946 59.1807 21.5624 59.3431 21.1638C59.5203 20.7504 59.6015 20.3149 59.5867 19.8573C59.5719 19.3849 59.4465 18.9568 59.2102 18.5729C59.0331 18.2924 58.7969 18.0858 58.5016 17.9529C58.2211 17.82 57.9185 17.7536 57.5937 17.7536C57.2689 17.7388 56.9442 17.7905 56.6194 17.9086C56.3094 18.0119 56.051 18.167 55.8443 18.3736ZM72.4789 14.7641C72.7299 14.7051 72.9809 14.7198 73.2318 14.8084C73.4976 14.897 73.7412 15.0446 73.9626 15.2513C74.0659 15.3546 74.1397 15.4801 74.184 15.6278C74.2431 15.7754 74.2726 15.9304 74.2726 16.0928C74.2726 16.2699 74.2431 16.4619 74.184 16.6685C74.1397 16.8605 74.0733 17.0081 73.9847 17.1114C73.8666 17.2443 73.7116 17.3476 73.5197 17.4214C73.3278 17.4953 73.1433 17.5469 72.9661 17.5764C72.789 17.5912 72.6339 17.5986 72.5011 17.5986C72.383 17.5986 72.3165 17.5986 72.3018 17.5986L67.9615 17.6207C67.7844 17.6355 67.5998 17.6503 67.4079 17.665C67.2308 17.665 67.0536 17.6576 66.8765 17.6429C66.6993 17.6134 66.5295 17.5691 66.3671 17.51C66.2195 17.4362 66.0793 17.3402 65.9464 17.2221C65.784 17.0597 65.6585 16.9047 65.5699 16.7571C65.4814 16.5947 65.4371 16.4102 65.4371 16.2035C65.4371 15.9525 65.5035 15.709 65.6364 15.4727C65.784 15.2218 65.9833 15.052 66.2343 14.9634C66.5443 14.8306 66.8617 14.7715 67.1865 14.7863C67.526 14.7863 67.8656 14.7789 68.2051 14.7641H72.4789ZM88.1489 10.1139C88.3113 10.3058 88.3925 10.5051 88.3925 10.7118C88.3925 10.8003 88.3851 10.8963 88.3703 10.9996C88.3703 11.0882 88.3629 11.1694 88.3482 11.2432C88.3039 11.4056 88.2079 11.5606 88.0603 11.7082C87.9422 11.7968 87.7798 11.8632 87.5731 11.9075C87.4698 11.9371 87.3665 11.9592 87.2631 11.974C87.1598 11.9887 87.0491 12.0109 86.931 12.0404C86.8276 12.0552 86.7243 12.0625 86.6209 12.0625C86.5176 12.0625 86.4069 12.0625 86.2888 12.0625H85.1594C84.8937 12.0773 84.628 12.0847 84.3622 12.0847C84.1113 12.0847 83.8603 12.0847 83.6093 12.0847C83.6241 12.5423 83.6315 13.0369 83.6315 13.5684C83.6315 14.085 83.6241 14.6903 83.6093 15.3842C83.6093 16.078 83.6019 16.8826 83.5872 17.7979C83.5872 18.7132 83.5872 19.7761 83.5872 20.9867V22.6696C83.5872 22.8172 83.5946 22.928 83.6093 23.0018C83.6093 23.0608 83.6093 23.1199 83.6093 23.1789C83.6093 23.2232 83.6019 23.2823 83.5872 23.3561C83.5577 23.4889 83.5355 23.644 83.5207 23.8211C83.5207 23.8949 83.5134 23.9687 83.4986 24.0425C83.4838 24.1016 83.4617 24.168 83.4322 24.2418C83.3731 24.3009 83.3436 24.3452 83.3436 24.3747L83.2772 24.5076C83.2033 24.6552 83.0631 24.7955 82.8564 24.9283C82.5316 25.0907 82.17 25.1276 81.7714 25.039C81.5204 25.0095 81.3285 24.9431 81.1956 24.8397C81.0627 24.7069 80.9668 24.574 80.9077 24.4411C80.8192 24.2788 80.7675 24.1237 80.7527 23.9761C80.7084 23.8433 80.6863 23.703 80.6863 23.5554V12.1733C80.5977 12.1733 80.4132 12.1733 80.1327 12.1733C79.8522 12.1733 79.5496 12.1733 79.2248 12.1733C78.9148 12.1585 78.6195 12.1437 78.339 12.129C78.0585 12.1142 77.8666 12.0995 77.7633 12.0847C77.6747 12.0699 77.5344 12.0478 77.3425 12.0183C77.1654 11.9887 77.0177 11.9592 76.8996 11.9297C76.5896 11.8411 76.346 11.7009 76.1689 11.5089C76.0065 11.317 75.9253 11.103 75.9253 10.8668C75.9253 10.7782 75.9253 10.6896 75.9253 10.601C75.9253 10.5125 75.9401 10.4313 75.9696 10.3574C76.0139 10.1803 76.132 10.0327 76.3239 9.91456C76.3829 9.87027 76.4715 9.8186 76.5896 9.75955C76.7225 9.68574 76.848 9.63407 76.9661 9.60454C77.1432 9.54549 77.3647 9.5012 77.6304 9.47168C77.7485 9.45691 77.8666 9.44953 77.9847 9.44953C78.1028 9.44953 78.2283 9.44953 78.3612 9.44953C78.8779 9.44953 79.365 9.44953 79.8227 9.44953C80.2951 9.44953 80.7896 9.44215 81.3063 9.42739C82.1626 9.41263 83.0114 9.41263 83.8529 9.42739C84.7092 9.42739 85.558 9.44215 86.3995 9.47168C86.5914 9.48644 86.7759 9.50858 86.9531 9.53811C87.1303 9.56763 87.3074 9.6193 87.4846 9.69312C87.6174 9.73741 87.7429 9.79646 87.861 9.87027C87.9791 9.92932 88.0751 10.0105 88.1489 10.1139ZM89.9545 22.7582L89.9766 21.0088L89.9988 17.7536C90.0136 17.2812 90.0209 16.794 90.0209 16.2921C90.0209 15.7901 90.0209 15.2735 90.0209 14.742C90.0209 14.2105 90.0209 13.7381 90.0209 13.3248C90.0209 12.9114 90.0357 12.4464 90.0652 11.9297V11.8411C90.08 11.6935 90.0874 11.5458 90.0874 11.3982C90.1021 11.2358 90.1095 11.0734 90.1095 10.911C90.1243 10.6453 90.2055 10.3574 90.3531 10.0474C90.4564 9.84075 90.6114 9.66359 90.8181 9.51596C91.0543 9.39786 91.2832 9.33881 91.5046 9.33881C91.6227 9.33881 91.726 9.34619 91.8146 9.36096C91.918 9.36096 92.0139 9.36834 92.1025 9.3831C92.2944 9.41263 92.4642 9.5012 92.6118 9.64883C92.7004 9.72264 92.7816 9.84075 92.8554 10.0031C92.8849 10.0917 92.9071 10.1803 92.9218 10.2689C92.9513 10.3427 92.9735 10.4239 92.9883 10.5125C93.003 10.6158 93.0104 10.7118 93.0104 10.8003C93.0252 10.8889 93.0325 10.9775 93.0325 11.0661C93.0325 11.1694 93.0252 11.2654 93.0104 11.3539C93.0104 11.4277 93.0104 11.5089 93.0104 11.5975V11.974L92.8775 23.4668V23.6882C92.8775 23.7325 92.8702 23.7916 92.8554 23.8654C92.8554 23.9244 92.848 23.9983 92.8332 24.0868C92.8037 24.1607 92.7742 24.2418 92.7447 24.3304C92.7299 24.4042 92.7078 24.4854 92.6782 24.574C92.6339 24.6478 92.5823 24.7216 92.5232 24.7955C92.4789 24.8545 92.4199 24.9136 92.3461 24.9726C92.228 25.0907 92.0361 25.1719 91.7703 25.2162C91.3717 25.3048 90.9953 25.2679 90.641 25.1055C90.4638 24.9874 90.3383 24.8397 90.2645 24.6626C90.2202 24.6183 90.1981 24.574 90.1981 24.5297C90.1833 24.5002 90.1686 24.4781 90.1538 24.4633C90.139 24.4485 90.1243 24.4264 90.1095 24.3969C90.08 24.323 90.0578 24.2492 90.0431 24.1754C90.0283 24.0868 90.0209 23.9983 90.0209 23.9097C90.0062 23.8359 89.9914 23.7621 89.9766 23.6882C89.9766 23.6144 89.9693 23.5406 89.9545 23.4668C89.9397 23.3487 89.9397 23.2232 89.9545 23.0903V22.7582ZM105.063 10.8225C105.624 11.3392 106.037 11.9592 106.303 12.6826C106.569 13.3912 106.672 14.0998 106.613 14.8084C106.554 15.4875 106.34 16.1149 105.971 16.6907C105.602 17.2517 105.041 17.6798 104.288 17.975C103.697 18.226 103.114 18.4032 102.538 18.5065C101.963 18.6098 101.328 18.691 100.634 18.7501C100.324 18.7796 100.058 18.8018 99.8369 18.8165C99.6302 18.8165 99.3866 18.8239 99.1061 18.8387C99.047 18.8387 98.9437 18.8387 98.7961 18.8387C98.6632 18.8387 98.5673 18.846 98.5082 18.8608V23.4447C98.4639 23.7251 98.4049 24.013 98.3311 24.3083C98.272 24.6035 98.1022 24.8324 97.8217 24.9947C97.6593 25.0833 97.4601 25.135 97.2238 25.1498C96.9876 25.1645 96.7736 25.1571 96.5817 25.1276C96.375 25.0981 96.1978 25.0464 96.0502 24.9726C95.9173 24.884 95.8066 24.7364 95.718 24.5297C95.659 24.3969 95.5999 24.2492 95.5409 24.0868C95.4966 23.9097 95.4745 23.6956 95.4745 23.4447V11.1989C95.4745 11.0956 95.4818 10.9996 95.4966 10.911C95.5114 10.8225 95.5261 10.7339 95.5409 10.6453C95.5704 10.5715 95.5926 10.4903 95.6073 10.4017C95.6221 10.3132 95.6442 10.232 95.6738 10.1581C95.7033 10.0843 95.7328 10.0179 95.7623 9.95885C95.8066 9.8998 95.8583 9.84813 95.9173 9.80384C95.9912 9.73003 96.1019 9.66359 96.2495 9.60454C96.4119 9.54549 96.6481 9.51596 96.9581 9.51596H97.0024C97.46 9.48644 97.9694 9.4643 98.5304 9.44953C99.0913 9.42001 99.5564 9.42739 99.9254 9.47168C100.132 9.5012 100.324 9.52335 100.501 9.53811C100.678 9.53811 100.848 9.54549 101.011 9.56025C101.188 9.57502 101.365 9.58978 101.542 9.60454C101.719 9.6193 101.896 9.64145 102.073 9.67097C102.221 9.7005 102.354 9.72264 102.472 9.73741C102.605 9.75217 102.738 9.77431 102.871 9.80384C102.989 9.83337 103.114 9.86289 103.247 9.89242C103.395 9.92194 103.528 9.97361 103.646 10.0474C103.956 10.136 104.214 10.2467 104.421 10.3796C104.627 10.5125 104.841 10.6601 105.063 10.8225ZM103.734 14.4763C103.749 14.122 103.675 13.8119 103.513 13.5462C103.365 13.2805 103.151 13.059 102.871 12.8819C102.59 12.7047 102.273 12.5645 101.918 12.4611C101.564 12.3578 101.21 12.284 100.855 12.2397C100.767 12.2397 100.641 12.2397 100.479 12.2397C100.331 12.2249 100.169 12.2176 99.9919 12.2176C99.8147 12.2028 99.6449 12.1954 99.4826 12.1954C99.3349 12.1806 99.2168 12.1733 99.1282 12.1733C99.0544 12.1585 98.9659 12.1511 98.8625 12.1511C98.7592 12.1511 98.6411 12.1511 98.5082 12.1511C98.523 12.6088 98.5304 13.0517 98.5304 13.4798C98.5304 13.8931 98.5304 14.3434 98.5304 14.8306C98.5156 15.0963 98.5082 15.362 98.5082 15.6278C98.5082 15.8935 98.5082 16.1518 98.5082 16.4028L99.8811 16.3807C100.235 16.3807 100.627 16.3585 101.055 16.3142C101.483 16.2699 101.889 16.1814 102.273 16.0485C102.657 15.9156 102.981 15.7237 103.247 15.4727C103.528 15.2218 103.69 14.8896 103.734 14.4763Z" fill="#393939"/>
<rect width="30.3394" height="30.0548" rx="5.03279" transform="matrix(0.976767 0.214304 -0.218595 0.975816 6.56982 0)" fill="#0B6EF1"/>
<ellipse cx="3.2076" cy="4.0738" rx="3.2076" ry="4.0738" transform="matrix(0.976767 0.214304 -0.218595 0.975816 13.8887 13.5786)" fill="#F6F7F9"/>
<ellipse cx="3.2076" cy="4.0738" rx="3.2076" ry="4.0738" transform="matrix(0.976767 0.214304 -0.218595 0.975816 20.1548 14.9535)" fill="#F6F7F9"/>
<path d="M15.8044 26.665C16.3351 27.9601 17.9987 28.3251 19.0327 27.3733L23.9924 22.8079C25.1912 21.7045 24.6578 19.716 23.0696 19.3675L15.5645 17.7209C13.9763 17.3724 12.6438 18.9515 13.259 20.453L15.8044 26.665Z" fill="#F6F7F9"/>
<rect width="6.13651" height="6.07894" rx="1.00656" transform="matrix(0.976767 0.214304 -0.218595 0.975816 3.94678 21.3158)" fill="#F6F7F9"/>
<rect width="6.13651" height="6.07894" rx="1.00656" transform="matrix(0.976767 0.214304 -0.218595 0.975816 7.93115 2.82886)" fill="#F6F7F9"/>
<rect width="6.13651" height="6.07894" rx="1.00656" transform="matrix(0.976767 0.214304 -0.218595 0.975816 27.7622 6.43372)" fill="#F6F7F9"/>
<rect width="2.28191" height="2.26801" transform="matrix(0.892794 0.450465 -0.457963 0.888971 29.7646 17.116)" fill="#F6F7F9"/>
<rect width="3.07838" height="3.05964" transform="matrix(0.892794 0.450465 -0.457963 0.888971 21.582 8.94177)" fill="#F6F7F9"/>
</svg>
